<svg xmlns="http://www.w3.org/2000/svg"  viewBox="0 0 48 48" width="48px" height="48px"><path d="M 24 4 L 24 6.4609375 C 24 8.3209375 25.289375 9.9296094 27.109375 10.349609 C 33.829375 11.879609 38.730156 18.259609 37.910156 25.599609 C 37.200156 32.009609 32.009609 37.200156 25.599609 37.910156 C 17.169609 38.850156 10 32.25 10 24 C 10 23.18 10.070703 22.360547 10.220703 21.560547 L 4.6191406 19.060547 C 4.2091406 20.670547 4 22.33 4 24 C 4 35.39 13.569844 44.580703 25.089844 43.970703 C 35.169844 43.430703 43.430703 35.169844 43.970703 25.089844 C 44.580703 13.569844 35.39 4 24 4 z M 13.363281 6.0957031 L 1.1054688 14.216797 L 15.529297 20.638672 L 13.363281 6.0957031 z"/></svg>